<svg width="1363" height="163" viewBox="0 0 1363 163" fill="none" xmlns="http://www.w3.org/2000/svg">
<path d="M0 15C0 6.71573 6.71573 0 15 0H37V163H15C6.71573 163 0 156.284 0 148V15Z" fill="#424242"/>
<rect width="1097" height="163" transform="translate(37)" fill="#F0F0F0"/>
<path d="M103.793 58.4688L108.41 62.125L106.195 64.0469L101.648 60.3906L103.793 58.4688ZM108.527 52.0703V52.8789C108.527 54.1758 108.352 55.3398 108 56.3711C107.656 57.4023 107.16 58.2812 106.512 59.0078C105.863 59.7266 105.098 60.2773 104.215 60.6602C103.332 61.043 102.352 61.2344 101.273 61.2344C100.203 61.2344 99.2227 61.043 98.332 60.6602C97.4414 60.2773 96.6719 59.7266 96.0234 59.0078C95.375 58.2812 94.8711 57.4023 94.5117 56.3711C94.1602 55.3398 93.9844 54.1758 93.9844 52.8789V52.0703C93.9844 50.7656 94.1602 49.6016 94.5117 48.5781C94.8711 47.5469 95.3711 46.668 96.0117 45.9414C96.6523 45.2148 97.418 44.6602 98.3086 44.2773C99.1992 43.8945 100.18 43.7031 101.25 43.7031C102.328 43.7031 103.309 43.8945 104.191 44.2773C105.082 44.6602 105.852 45.2148 106.5 45.9414C107.148 46.668 107.648 47.5469 108 48.5781C108.352 49.6016 108.527 50.7656 108.527 52.0703ZM104.977 52.8789V52.0469C104.977 51.1406 104.891 50.3438 104.719 49.6562C104.555 48.9688 104.312 48.3906 103.992 47.9219C103.68 47.4531 103.293 47.1016 102.832 46.8672C102.371 46.625 101.844 46.5039 101.25 46.5039C100.656 46.5039 100.129 46.625 99.668 46.8672C99.207 47.1016 98.8203 47.4531 98.5078 47.9219C98.1953 48.3906 97.957 48.9688 97.793 49.6562C97.6289 50.3438 97.5469 51.1406 97.5469 52.0469V52.8789C97.5469 53.7773 97.6289 54.5742 97.793 55.2695C97.957 55.957 98.1953 56.5391 98.5078 57.0156C98.8281 57.4844 99.2188 57.8398 99.6797 58.082C100.148 58.3242 100.68 58.4453 101.273 58.4453C101.867 58.4453 102.391 58.3242 102.844 58.082C103.305 57.8398 103.691 57.4844 104.004 57.0156C104.324 56.5391 104.566 55.957 104.73 55.2695C104.895 54.5742 104.977 53.7773 104.977 52.8789ZM118.359 57.9648V48.3203H121.734V61H118.559L118.359 57.9648ZM118.734 55.3633L119.73 55.3398C119.73 56.1836 119.633 56.9688 119.438 57.6953C119.242 58.4141 118.949 59.0391 118.559 59.5703C118.168 60.0938 117.676 60.5039 117.082 60.8008C116.488 61.0898 115.789 61.2344 114.984 61.2344C114.367 61.2344 113.797 61.1484 113.273 60.9766C112.758 60.7969 112.312 60.5195 111.938 60.1445C111.57 59.7617 111.281 59.2734 111.07 58.6797C110.867 58.0781 110.766 57.3555 110.766 56.5117V48.3203H114.141V56.5352C114.141 56.9102 114.184 57.2266 114.27 57.4844C114.363 57.7422 114.492 57.9531 114.656 58.1172C114.82 58.2812 115.012 58.3984 115.23 58.4688C115.457 58.5391 115.707 58.5742 115.98 58.5742C116.676 58.5742 117.223 58.4336 117.621 58.1523C118.027 57.8711 118.312 57.4883 118.477 57.0039C118.648 56.5117 118.734 55.9648 118.734 55.3633ZM127.875 48.3203V61H124.488V48.3203H127.875ZM124.277 45.0156C124.277 44.5234 124.449 44.1172 124.793 43.7969C125.137 43.4766 125.598 43.3164 126.176 43.3164C126.746 43.3164 127.203 43.4766 127.547 43.7969C127.898 44.1172 128.074 44.5234 128.074 45.0156C128.074 45.5078 127.898 45.9141 127.547 46.2344C127.203 46.5547 126.746 46.7148 126.176 46.7148C125.598 46.7148 125.137 46.5547 124.793 46.2344C124.449 45.9141 124.277 45.5078 124.277 45.0156ZM140.754 58.3633V61H131.121V58.3633H140.754ZM140.566 50.2656L132.48 61H130.219V58.9961L138.27 48.3203H140.566V50.2656ZM139.371 48.3203V50.9688H130.406V48.3203H139.371ZM162.586 52.082V58.8438C162.32 59.1641 161.91 59.5117 161.355 59.8867C160.801 60.2539 160.086 60.5703 159.211 60.8359C158.336 61.1016 157.277 61.2344 156.035 61.2344C154.934 61.2344 153.93 61.0547 153.023 60.6953C152.117 60.3281 151.336 59.793 150.68 59.0898C150.031 58.3867 149.531 57.5273 149.18 56.5117C148.828 55.4883 148.652 54.3203 148.652 53.0078V51.9414C148.652 50.6289 148.82 49.4609 149.156 48.4375C149.5 47.4141 149.988 46.5508 150.621 45.8477C151.254 45.1445 152.008 44.6094 152.883 44.2422C153.758 43.875 154.73 43.6914 155.801 43.6914C157.285 43.6914 158.504 43.9336 159.457 44.418C160.41 44.8945 161.137 45.5586 161.637 46.4102C162.145 47.2539 162.457 48.2227 162.574 49.3164H159.164C159.078 48.7383 158.914 48.2344 158.672 47.8047C158.43 47.375 158.082 47.0391 157.629 46.7969C157.184 46.5547 156.605 46.4336 155.895 46.4336C155.309 46.4336 154.785 46.5547 154.324 46.7969C153.871 47.0312 153.488 47.3789 153.176 47.8398C152.863 48.3008 152.625 48.8711 152.461 49.5508C152.297 50.2305 152.215 51.0195 152.215 51.918V53.0078C152.215 53.8984 152.301 54.6875 152.473 55.375C152.645 56.0547 152.898 56.6289 153.234 57.0977C153.578 57.5586 154 57.9062 154.5 58.1406C155 58.375 155.582 58.4922 156.246 58.4922C156.801 58.4922 157.262 58.4453 157.629 58.3516C158.004 58.2578 158.305 58.1445 158.531 58.0117C158.766 57.8711 158.945 57.7383 159.07 57.6133V54.5898H155.859V52.082H162.586ZM172.055 58.1406V52.4922C172.055 52.0859 171.988 51.7383 171.855 51.4492C171.723 51.1523 171.516 50.9219 171.234 50.7578C170.961 50.5938 170.605 50.5117 170.168 50.5117C169.793 50.5117 169.469 50.5781 169.195 50.7109C168.922 50.8359 168.711 51.0195 168.562 51.2617C168.414 51.4961 168.34 51.7734 168.34 52.0938H164.965C164.965 51.5547 165.09 51.043 165.34 50.5586C165.59 50.0742 165.953 49.6484 166.43 49.2812C166.906 48.9062 167.473 48.6133 168.129 48.4023C168.793 48.1914 169.535 48.0859 170.355 48.0859C171.34 48.0859 172.215 48.25 172.98 48.5781C173.746 48.9062 174.348 49.3984 174.785 50.0547C175.23 50.7109 175.453 51.5312 175.453 52.5156V57.9414C175.453 58.6367 175.496 59.207 175.582 59.6523C175.668 60.0898 175.793 60.4727 175.957 60.8008V61H172.547C172.383 60.6562 172.258 60.2266 172.172 59.7109C172.094 59.1875 172.055 58.6641 172.055 58.1406ZM172.5 53.2773L172.523 55.1875H170.637C170.191 55.1875 169.805 55.2383 169.477 55.3398C169.148 55.4414 168.879 55.5859 168.668 55.7734C168.457 55.9531 168.301 56.1641 168.199 56.4062C168.105 56.6484 168.059 56.9141 168.059 57.2031C168.059 57.4922 168.125 57.7539 168.258 57.9883C168.391 58.2148 168.582 58.3945 168.832 58.5273C169.082 58.6523 169.375 58.7148 169.711 58.7148C170.219 58.7148 170.66 58.6133 171.035 58.4102C171.41 58.207 171.699 57.957 171.902 57.6602C172.113 57.3633 172.223 57.082 172.23 56.8164L173.121 58.2461C172.996 58.5664 172.824 58.8984 172.605 59.2422C172.395 59.5859 172.125 59.9102 171.797 60.2148C171.469 60.5117 171.074 60.7578 170.613 60.9531C170.152 61.1406 169.605 61.2344 168.973 61.2344C168.168 61.2344 167.438 61.0742 166.781 60.7539C166.133 60.4258 165.617 59.9766 165.234 59.4062C164.859 58.8281 164.672 58.1719 164.672 57.4375C164.672 56.7734 164.797 56.1836 165.047 55.668C165.297 55.1523 165.664 54.7188 166.148 54.3672C166.641 54.0078 167.254 53.7383 167.988 53.5586C168.723 53.3711 169.574 53.2773 170.543 53.2773H172.5ZM181.43 50.9453V61H178.043V48.3203H181.219L181.43 50.9453ZM180.961 54.2148H180.023C180.023 53.332 180.129 52.5195 180.34 51.7773C180.559 51.0273 180.875 50.3789 181.289 49.832C181.711 49.2773 182.23 48.8477 182.848 48.543C183.465 48.2383 184.18 48.0859 184.992 48.0859C185.555 48.0859 186.07 48.1719 186.539 48.3438C187.008 48.5078 187.41 48.7695 187.746 49.1289C188.09 49.4805 188.355 49.9414 188.543 50.5117C188.73 51.0742 188.824 51.75 188.824 52.5391V61H185.449V52.9141C185.449 52.3359 185.371 51.8906 185.215 51.5781C185.059 51.2656 184.836 51.0469 184.547 50.9219C184.266 50.7969 183.926 50.7344 183.527 50.7344C183.09 50.7344 182.707 50.8242 182.379 51.0039C182.059 51.1836 181.793 51.4336 181.582 51.7539C181.371 52.0664 181.215 52.4336 181.113 52.8555C181.012 53.2773 180.961 53.7305 180.961 54.2148ZM188.508 53.8281L187.301 53.9805C187.301 53.1523 187.402 52.3828 187.605 51.6719C187.816 50.9609 188.125 50.3359 188.531 49.7969C188.945 49.2578 189.457 48.8398 190.066 48.543C190.676 48.2383 191.379 48.0859 192.176 48.0859C192.785 48.0859 193.34 48.1758 193.84 48.3555C194.34 48.5273 194.766 48.8047 195.117 49.1875C195.477 49.5625 195.75 50.0547 195.938 50.6641C196.133 51.2734 196.23 52.0195 196.23 52.9023V61H192.844V52.9023C192.844 52.3164 192.766 51.8711 192.609 51.5664C192.461 51.2539 192.242 51.0391 191.953 50.9219C191.672 50.7969 191.336 50.7344 190.945 50.7344C190.539 50.7344 190.184 50.8164 189.879 50.9805C189.574 51.1367 189.32 51.3555 189.117 51.6367C188.914 51.918 188.762 52.2461 188.66 52.6211C188.559 52.9883 188.508 53.3906 188.508 53.8281ZM204.68 61.2344C203.695 61.2344 202.812 61.0781 202.031 60.7656C201.25 60.4453 200.586 60.0039 200.039 59.4414C199.5 58.8789 199.086 58.2266 198.797 57.4844C198.508 56.7344 198.363 55.9375 198.363 55.0938V54.625C198.363 53.6641 198.5 52.7852 198.773 51.9883C199.047 51.1914 199.438 50.5 199.945 49.9141C200.461 49.3281 201.086 48.8789 201.82 48.5664C202.555 48.2461 203.383 48.0859 204.305 48.0859C205.203 48.0859 206 48.2344 206.695 48.5312C207.391 48.8281 207.973 49.25 208.441 49.7969C208.918 50.3438 209.277 51 209.52 51.7656C209.762 52.5234 209.883 53.3672 209.883 54.2969V55.7031H199.805V53.4531H206.566V53.1953C206.566 52.7266 206.48 52.3086 206.309 51.9414C206.145 51.5664 205.895 51.2695 205.559 51.0508C205.223 50.832 204.793 50.7227 204.27 50.7227C203.824 50.7227 203.441 50.8203 203.121 51.0156C202.801 51.2109 202.539 51.4844 202.336 51.8359C202.141 52.1875 201.992 52.6016 201.891 53.0781C201.797 53.5469 201.75 54.0625 201.75 54.625V55.0938C201.75 55.6016 201.82 56.0703 201.961 56.5C202.109 56.9297 202.316 57.3008 202.582 57.6133C202.855 57.9258 203.184 58.168 203.566 58.3398C203.957 58.5117 204.398 58.5977 204.891 58.5977C205.5 58.5977 206.066 58.4805 206.59 58.2461C207.121 58.0039 207.578 57.6406 207.961 57.1562L209.602 58.9375C209.336 59.3203 208.973 59.6875 208.512 60.0391C208.059 60.3906 207.512 60.6797 206.871 60.9062C206.23 61.125 205.5 61.2344 204.68 61.2344Z" fill="#888888"/>
<path d="M109.219 107.422H100.734V101.07H109.219C110.375 101.07 111.312 100.875 112.031 100.484C112.75 100.094 113.273 99.5547 113.602 98.8672C113.945 98.1641 114.117 97.375 114.117 96.5C114.117 95.5625 113.945 94.6953 113.602 93.8984C113.273 93.1016 112.75 92.4609 112.031 91.9766C111.312 91.4766 110.375 91.2266 109.219 91.2266H103.828V119H95.6016V84.875H109.219C111.953 84.875 114.305 85.375 116.273 86.375C118.258 87.375 119.781 88.75 120.844 90.5C121.906 92.2344 122.438 94.2188 122.438 96.4531C122.438 98.6562 121.906 100.578 120.844 102.219C119.781 103.859 118.258 105.141 116.273 106.062C114.305 106.969 111.953 107.422 109.219 107.422ZM134.461 99.9219V119H126.562V93.6406H133.945L134.461 99.9219ZM141.961 93.4531L141.82 100.789C141.508 100.758 141.086 100.719 140.555 100.672C140.023 100.625 139.578 100.602 139.219 100.602C138.297 100.602 137.5 100.711 136.828 100.93C136.172 101.133 135.625 101.445 135.188 101.867C134.766 102.273 134.453 102.789 134.25 103.414C134.062 104.039 133.977 104.766 133.992 105.594L132.562 104.656C132.562 102.953 132.727 101.406 133.055 100.016C133.398 98.6094 133.883 97.3984 134.508 96.3828C135.133 95.3516 135.891 94.5625 136.781 94.0156C137.672 93.4531 138.672 93.1719 139.781 93.1719C140.172 93.1719 140.555 93.1953 140.93 93.2422C141.32 93.2891 141.664 93.3594 141.961 93.4531ZM142.852 106.578V106.086C142.852 104.227 143.117 102.516 143.648 100.953C144.18 99.375 144.961 98.0078 145.992 96.8516C147.023 95.6953 148.297 94.7969 149.812 94.1562C151.328 93.5 153.078 93.1719 155.062 93.1719C157.062 93.1719 158.82 93.5 160.336 94.1562C161.867 94.7969 163.148 95.6953 164.18 96.8516C165.211 98.0078 165.992 99.375 166.523 100.953C167.055 102.516 167.32 104.227 167.32 106.086V106.578C167.32 108.422 167.055 110.133 166.523 111.711C165.992 113.273 165.211 114.641 164.18 115.812C163.148 116.969 161.875 117.867 160.359 118.508C158.844 119.148 157.094 119.469 155.109 119.469C153.125 119.469 151.367 119.148 149.836 118.508C148.305 117.867 147.023 116.969 145.992 115.812C144.961 114.641 144.18 113.273 143.648 111.711C143.117 110.133 142.852 108.422 142.852 106.578ZM150.75 106.086V106.578C150.75 107.531 150.82 108.422 150.961 109.25C151.102 110.078 151.336 110.805 151.664 111.43C151.992 112.039 152.438 112.516 153 112.859C153.562 113.203 154.266 113.375 155.109 113.375C155.938 113.375 156.625 113.203 157.172 112.859C157.734 112.516 158.18 112.039 158.508 111.43C158.836 110.805 159.07 110.078 159.211 109.25C159.352 108.422 159.422 107.531 159.422 106.578V106.086C159.422 105.164 159.352 104.297 159.211 103.484C159.07 102.656 158.836 101.93 158.508 101.305C158.18 100.664 157.734 100.164 157.172 99.8047C156.609 99.4453 155.906 99.2656 155.062 99.2656C154.234 99.2656 153.539 99.4453 152.977 99.8047C152.43 100.164 151.992 100.664 151.664 101.305C151.336 101.93 151.102 102.656 150.961 103.484C150.82 104.297 150.75 105.164 150.75 106.086ZM171.422 93.6406H179.344V119.82C179.344 121.852 178.953 123.562 178.172 124.953C177.391 126.359 176.273 127.422 174.82 128.141C173.367 128.875 171.633 129.242 169.617 129.242C168.945 129.242 168.328 129.211 167.766 129.148C167.188 129.102 166.555 129 165.867 128.844V122.867C166.273 122.93 166.648 122.977 166.992 123.008C167.336 123.055 167.711 123.078 168.117 123.078C168.836 123.078 169.438 122.961 169.922 122.727C170.406 122.492 170.773 122.133 171.023 121.648C171.289 121.164 171.422 120.555 171.422 119.82V93.6406ZM170.836 87.1016C170.836 85.9766 171.242 85.0547 172.055 84.3359C172.867 83.6172 173.922 83.2578 175.219 83.2578C176.516 83.2578 177.57 83.6172 178.383 84.3359C179.195 85.0547 179.602 85.9766 179.602 87.1016C179.602 88.2266 179.195 89.1484 178.383 89.8672C177.57 90.5859 176.516 90.9453 175.219 90.9453C173.922 90.9453 172.867 90.5859 172.055 89.8672C171.242 89.1484 170.836 88.2266 170.836 87.1016ZM196.102 119.469C194.039 119.469 192.195 119.148 190.57 118.508C188.945 117.852 187.57 116.953 186.445 115.812C185.336 114.672 184.484 113.359 183.891 111.875C183.312 110.391 183.023 108.82 183.023 107.164V106.273C183.023 104.414 183.281 102.695 183.797 101.117C184.312 99.5234 185.078 98.1328 186.094 96.9453C187.109 95.7578 188.383 94.8359 189.914 94.1797C191.445 93.5078 193.227 93.1719 195.258 93.1719C197.055 93.1719 198.664 93.4609 200.086 94.0391C201.508 94.6172 202.711 95.4453 203.695 96.5234C204.695 97.6016 205.453 98.9062 205.969 100.438C206.5 101.969 206.766 103.688 206.766 105.594V108.805H186.047V103.859H199.055V103.25C199.07 102.406 198.922 101.688 198.609 101.094C198.312 100.5 197.875 100.047 197.297 99.7344C196.719 99.4219 196.016 99.2656 195.188 99.2656C194.328 99.2656 193.617 99.4531 193.055 99.8281C192.508 100.203 192.078 100.719 191.766 101.375C191.469 102.016 191.258 102.758 191.133 103.602C191.008 104.445 190.945 105.336 190.945 106.273V107.164C190.945 108.102 191.07 108.953 191.32 109.719C191.586 110.484 191.961 111.141 192.445 111.688C192.945 112.219 193.539 112.633 194.227 112.93C194.93 113.227 195.727 113.375 196.617 113.375C197.695 113.375 198.758 113.172 199.805 112.766C200.852 112.359 201.75 111.688 202.5 110.75L206.086 115.016C205.57 115.75 204.836 116.461 203.883 117.148C202.945 117.836 201.82 118.398 200.508 118.836C199.195 119.258 197.727 119.469 196.102 119.469ZM220.688 113.375C221.422 113.375 222.047 113.242 222.562 112.977C223.094 112.695 223.492 112.305 223.758 111.805C224.039 111.289 224.172 110.672 224.156 109.953H231.586C231.602 111.859 231.133 113.531 230.18 114.969C229.242 116.391 227.961 117.5 226.336 118.297C224.727 119.078 222.906 119.469 220.875 119.469C218.891 119.469 217.156 119.148 215.672 118.508C214.188 117.852 212.945 116.945 211.945 115.789C210.961 114.617 210.219 113.25 209.719 111.688C209.234 110.125 208.992 108.43 208.992 106.602V106.062C208.992 104.234 209.234 102.539 209.719 100.977C210.219 99.3984 210.961 98.0312 211.945 96.875C212.945 95.7031 214.18 94.7969 215.648 94.1562C217.133 93.5 218.859 93.1719 220.828 93.1719C222.938 93.1719 224.797 93.5703 226.406 94.3672C228.031 95.1641 229.305 96.3203 230.227 97.8359C231.148 99.3516 231.602 101.188 231.586 103.344H224.156C224.172 102.578 224.055 101.891 223.805 101.281C223.555 100.672 223.164 100.188 222.633 99.8281C222.117 99.4531 221.453 99.2656 220.641 99.2656C219.828 99.2656 219.172 99.4453 218.672 99.8047C218.172 100.164 217.789 100.664 217.523 101.305C217.273 101.93 217.102 102.648 217.008 103.461C216.93 104.273 216.891 105.141 216.891 106.062V106.602C216.891 107.539 216.93 108.422 217.008 109.25C217.102 110.062 217.281 110.781 217.547 111.406C217.812 112.016 218.195 112.5 218.695 112.859C219.195 113.203 219.859 113.375 220.688 113.375ZM248.32 93.6406V99.125H233.039V93.6406H248.32ZM236.25 87.3359H244.148V110.727C244.148 111.398 244.227 111.922 244.383 112.297C244.539 112.656 244.805 112.914 245.18 113.07C245.57 113.211 246.086 113.281 246.727 113.281C247.18 113.281 247.555 113.273 247.852 113.258C248.148 113.227 248.43 113.188 248.695 113.141V118.789C248.023 119.008 247.32 119.172 246.586 119.281C245.852 119.406 245.07 119.469 244.242 119.469C242.555 119.469 241.109 119.203 239.906 118.672C238.719 118.141 237.812 117.305 237.188 116.164C236.562 115.023 236.25 113.539 236.25 111.711V87.3359ZM274.875 119H267.305L267.352 112.672H274.875C276.438 112.672 277.758 112.297 278.836 111.547C279.93 110.797 280.758 109.68 281.32 108.195C281.898 106.695 282.188 104.852 282.188 102.664V101.188C282.188 99.5469 282.023 98.1094 281.695 96.875C281.383 95.625 280.914 94.5859 280.289 93.7578C279.664 92.9141 278.883 92.2812 277.945 91.8594C277.023 91.4375 275.961 91.2266 274.758 91.2266H267.164V84.875H274.758C277.07 84.875 279.188 85.2734 281.109 86.0703C283.047 86.8516 284.719 87.9766 286.125 89.4453C287.547 90.8984 288.641 92.625 289.406 94.625C290.188 96.6094 290.578 98.8125 290.578 101.234V102.664C290.578 105.07 290.188 107.273 289.406 109.273C288.641 111.273 287.555 113 286.148 114.453C284.742 115.906 283.078 117.031 281.156 117.828C279.25 118.609 277.156 119 274.875 119ZM272.016 84.875V119H263.789V84.875H272.016ZM306.773 119.469C304.711 119.469 302.867 119.148 301.242 118.508C299.617 117.852 298.242 116.953 297.117 115.812C296.008 114.672 295.156 113.359 294.562 111.875C293.984 110.391 293.695 108.82 293.695 107.164V106.273C293.695 104.414 293.953 102.695 294.469 101.117C294.984 99.5234 295.75 98.1328 296.766 96.9453C297.781 95.7578 299.055 94.8359 300.586 94.1797C302.117 93.5078 303.898 93.1719 305.93 93.1719C307.727 93.1719 309.336 93.4609 310.758 94.0391C312.18 94.6172 313.383 95.4453 314.367 96.5234C315.367 97.6016 316.125 98.9062 316.641 100.438C317.172 101.969 317.438 103.688 317.438 105.594V108.805H296.719V103.859H309.727V103.25C309.742 102.406 309.594 101.688 309.281 101.094C308.984 100.5 308.547 100.047 307.969 99.7344C307.391 99.4219 306.688 99.2656 305.859 99.2656C305 99.2656 304.289 99.4531 303.727 99.8281C303.18 100.203 302.75 100.719 302.438 101.375C302.141 102.016 301.93 102.758 301.805 103.602C301.68 104.445 301.617 105.336 301.617 106.273V107.164C301.617 108.102 301.742 108.953 301.992 109.719C302.258 110.484 302.633 111.141 303.117 111.688C303.617 112.219 304.211 112.633 304.898 112.93C305.602 113.227 306.398 113.375 307.289 113.375C308.367 113.375 309.43 113.172 310.477 112.766C311.523 112.359 312.422 111.688 313.172 110.75L316.758 115.016C316.242 115.75 315.508 116.461 314.555 117.148C313.617 117.836 312.492 118.398 311.18 118.836C309.867 119.258 308.398 119.469 306.773 119.469ZM333.938 111.875C333.938 111.438 333.789 111.062 333.492 110.75C333.211 110.422 332.711 110.125 331.992 109.859C331.273 109.578 330.266 109.297 328.969 109.016C327.734 108.75 326.57 108.398 325.477 107.961C324.398 107.523 323.453 106.992 322.641 106.367C321.828 105.742 321.188 105 320.719 104.141C320.266 103.281 320.039 102.297 320.039 101.188C320.039 100.109 320.266 99.0938 320.719 98.1406C321.188 97.1719 321.867 96.3203 322.758 95.5859C323.664 94.8359 324.766 94.25 326.062 93.8281C327.359 93.3906 328.836 93.1719 330.492 93.1719C332.773 93.1719 334.742 93.5234 336.398 94.2266C338.055 94.9141 339.328 95.8828 340.219 97.1328C341.125 98.3672 341.578 99.7969 341.578 101.422H333.68C333.68 100.781 333.57 100.234 333.352 99.7812C333.148 99.3281 332.812 98.9844 332.344 98.75C331.875 98.5 331.25 98.375 330.469 98.375C329.922 98.375 329.422 98.4766 328.969 98.6797C328.531 98.8828 328.18 99.1641 327.914 99.5234C327.648 99.8828 327.516 100.305 327.516 100.789C327.516 101.133 327.594 101.445 327.75 101.727C327.922 101.992 328.18 102.242 328.523 102.477C328.867 102.695 329.305 102.898 329.836 103.086C330.367 103.258 331.008 103.414 331.758 103.555C333.461 103.867 335.055 104.312 336.539 104.891C338.023 105.469 339.227 106.289 340.148 107.352C341.086 108.414 341.555 109.844 341.555 111.641C341.555 112.766 341.297 113.805 340.781 114.758C340.266 115.695 339.523 116.523 338.555 117.242C337.586 117.945 336.422 118.492 335.062 118.883C333.703 119.273 332.172 119.469 330.469 119.469C328.047 119.469 326 119.039 324.328 118.18C322.656 117.305 321.391 116.211 320.531 114.898C319.688 113.57 319.266 112.227 319.266 110.867H326.625C326.656 111.648 326.844 112.289 327.188 112.789C327.547 113.289 328.023 113.656 328.617 113.891C329.211 114.125 329.898 114.242 330.68 114.242C331.398 114.242 331.992 114.141 332.461 113.938C332.945 113.734 333.312 113.461 333.562 113.117C333.812 112.758 333.938 112.344 333.938 111.875ZM355.969 113.375C356.703 113.375 357.328 113.242 357.844 112.977C358.375 112.695 358.773 112.305 359.039 111.805C359.32 111.289 359.453 110.672 359.438 109.953H366.867C366.883 111.859 366.414 113.531 365.461 114.969C364.523 116.391 363.242 117.5 361.617 118.297C360.008 119.078 358.188 119.469 356.156 119.469C354.172 119.469 352.438 119.148 350.953 118.508C349.469 117.852 348.227 116.945 347.227 115.789C346.242 114.617 345.5 113.25 345 111.688C344.516 110.125 344.273 108.43 344.273 106.602V106.062C344.273 104.234 344.516 102.539 345 100.977C345.5 99.3984 346.242 98.0312 347.227 96.875C348.227 95.7031 349.461 94.7969 350.93 94.1562C352.414 93.5 354.141 93.1719 356.109 93.1719C358.219 93.1719 360.078 93.5703 361.688 94.3672C363.312 95.1641 364.586 96.3203 365.508 97.8359C366.43 99.3516 366.883 101.188 366.867 103.344H359.438C359.453 102.578 359.336 101.891 359.086 101.281C358.836 100.672 358.445 100.188 357.914 99.8281C357.398 99.4531 356.734 99.2656 355.922 99.2656C355.109 99.2656 354.453 99.4453 353.953 99.8047C353.453 100.164 353.07 100.664 352.805 101.305C352.555 101.93 352.383 102.648 352.289 103.461C352.211 104.273 352.172 105.141 352.172 106.062V106.602C352.172 107.539 352.211 108.422 352.289 109.25C352.383 110.062 352.562 110.781 352.828 111.406C353.094 112.016 353.477 112.5 353.977 112.859C354.477 113.203 355.141 113.375 355.969 113.375ZM378.211 99.9219V119H370.312V93.6406H377.695L378.211 99.9219ZM385.711 93.4531L385.57 100.789C385.258 100.758 384.836 100.719 384.305 100.672C383.773 100.625 383.328 100.602 382.969 100.602C382.047 100.602 381.25 100.711 380.578 100.93C379.922 101.133 379.375 101.445 378.938 101.867C378.516 102.273 378.203 102.789 378 103.414C377.812 104.039 377.727 104.766 377.742 105.594L376.312 104.656C376.312 102.953 376.477 101.406 376.805 100.016C377.148 98.6094 377.633 97.3984 378.258 96.3828C378.883 95.3516 379.641 94.5625 380.531 94.0156C381.422 93.4531 382.422 93.1719 383.531 93.1719C383.922 93.1719 384.305 93.1953 384.68 93.2422C385.07 93.2891 385.414 93.3594 385.711 93.4531ZM396.773 93.6406V119H388.852V93.6406H396.773ZM388.383 87.1016C388.383 85.9766 388.789 85.0547 389.602 84.3359C390.414 83.6172 391.469 83.2578 392.766 83.2578C394.062 83.2578 395.117 83.6172 395.93 84.3359C396.742 85.0547 397.148 85.9766 397.148 87.1016C397.148 88.2266 396.742 89.1484 395.93 89.8672C395.117 90.5859 394.062 90.9453 392.766 90.9453C391.469 90.9453 390.414 90.5859 389.602 89.8672C388.789 89.1484 388.383 88.2266 388.383 87.1016ZM409.617 98.5156V128.75H401.719V93.6406H409.078L409.617 98.5156ZM425.18 106.016V106.508C425.18 108.352 424.969 110.062 424.547 111.641C424.125 113.219 423.5 114.594 422.672 115.766C421.844 116.938 420.812 117.852 419.578 118.508C418.359 119.148 416.945 119.469 415.336 119.469C413.82 119.469 412.516 119.133 411.422 118.461C410.328 117.789 409.414 116.859 408.68 115.672C407.945 114.484 407.352 113.125 406.898 111.594C406.445 110.062 406.086 108.445 405.82 106.742V106.109C406.086 104.281 406.445 102.586 406.898 101.023C407.352 99.4453 407.945 98.0703 408.68 96.8984C409.414 95.7266 410.32 94.8125 411.398 94.1562C412.492 93.5 413.797 93.1719 415.312 93.1719C416.922 93.1719 418.336 93.4766 419.555 94.0859C420.789 94.6953 421.82 95.5703 422.648 96.7109C423.492 97.8359 424.125 99.1875 424.547 100.766C424.969 102.344 425.18 104.094 425.18 106.016ZM417.281 106.508V106.016C417.281 105.031 417.211 104.133 417.07 103.32C416.93 102.492 416.703 101.773 416.391 101.164C416.094 100.555 415.695 100.086 415.195 99.7578C414.695 99.4297 414.078 99.2656 413.344 99.2656C412.5 99.2656 411.789 99.3984 411.211 99.6641C410.648 99.9141 410.195 100.305 409.852 100.836C409.523 101.352 409.289 102 409.148 102.781C409.023 103.547 408.969 104.445 408.984 105.477V107.398C408.953 108.586 409.07 109.633 409.336 110.539C409.602 111.43 410.062 112.125 410.719 112.625C411.375 113.125 412.266 113.375 413.391 113.375C414.141 113.375 414.766 113.203 415.266 112.859C415.766 112.5 416.164 112.008 416.461 111.383C416.758 110.742 416.969 110.008 417.094 109.18C417.219 108.352 417.281 107.461 417.281 106.508ZM442.055 93.6406V99.125H426.773V93.6406H442.055ZM429.984 87.3359H437.883V110.727C437.883 111.398 437.961 111.922 438.117 112.297C438.273 112.656 438.539 112.914 438.914 113.07C439.305 113.211 439.82 113.281 440.461 113.281C440.914 113.281 441.289 113.273 441.586 113.258C441.883 113.227 442.164 113.188 442.43 113.141V118.789C441.758 119.008 441.055 119.172 440.32 119.281C439.586 119.406 438.805 119.469 437.977 119.469C436.289 119.469 434.844 119.203 433.641 118.672C432.453 118.141 431.547 117.305 430.922 116.164C430.297 115.023 429.984 113.539 429.984 111.711V87.3359ZM453.539 93.6406V119H445.617V93.6406H453.539ZM445.148 87.1016C445.148 85.9766 445.555 85.0547 446.367 84.3359C447.18 83.6172 448.234 83.2578 449.531 83.2578C450.828 83.2578 451.883 83.6172 452.695 84.3359C453.508 85.0547 453.914 85.9766 453.914 87.1016C453.914 88.2266 453.508 89.1484 452.695 89.8672C451.883 90.5859 450.828 90.9453 449.531 90.9453C448.234 90.9453 447.18 90.5859 446.367 89.8672C445.555 89.1484 445.148 88.2266 445.148 87.1016ZM457.43 106.578V106.086C457.43 104.227 457.695 102.516 458.227 100.953C458.758 99.375 459.539 98.0078 460.57 96.8516C461.602 95.6953 462.875 94.7969 464.391 94.1562C465.906 93.5 467.656 93.1719 469.641 93.1719C471.641 93.1719 473.398 93.5 474.914 94.1562C476.445 94.7969 477.727 95.6953 478.758 96.8516C479.789 98.0078 480.57 99.375 481.102 100.953C481.633 102.516 481.898 104.227 481.898 106.086V106.578C481.898 108.422 481.633 110.133 481.102 111.711C480.57 113.273 479.789 114.641 478.758 115.812C477.727 116.969 476.453 117.867 474.938 118.508C473.422 119.148 471.672 119.469 469.688 119.469C467.703 119.469 465.945 119.148 464.414 118.508C462.883 117.867 461.602 116.969 460.57 115.812C459.539 114.641 458.758 113.273 458.227 111.711C457.695 110.133 457.43 108.422 457.43 106.578ZM465.328 106.086V106.578C465.328 107.531 465.398 108.422 465.539 109.25C465.68 110.078 465.914 110.805 466.242 111.43C466.57 112.039 467.016 112.516 467.578 112.859C468.141 113.203 468.844 113.375 469.688 113.375C470.516 113.375 471.203 113.203 471.75 112.859C472.312 112.516 472.758 112.039 473.086 111.43C473.414 110.805 473.648 110.078 473.789 109.25C473.93 108.422 474 107.531 474 106.578V106.086C474 105.164 473.93 104.297 473.789 103.484C473.648 102.656 473.414 101.93 473.086 101.305C472.758 100.664 472.312 100.164 471.75 99.8047C471.188 99.4453 470.484 99.2656 469.641 99.2656C468.812 99.2656 468.117 99.4453 467.555 99.8047C467.008 100.164 466.57 100.664 466.242 101.305C465.914 101.93 465.68 102.656 465.539 103.484C465.398 104.297 465.328 105.164 465.328 106.086ZM493.172 99.0547V119H485.273V93.6406H492.68L493.172 99.0547ZM492.234 105.453L490.383 105.5C490.383 103.562 490.617 101.836 491.086 100.32C491.555 98.7891 492.219 97.4922 493.078 96.4297C493.938 95.3672 494.961 94.5625 496.148 94.0156C497.352 93.4531 498.688 93.1719 500.156 93.1719C501.328 93.1719 502.398 93.3438 503.367 93.6875C504.352 94.0312 505.195 94.5859 505.898 95.3516C506.617 96.1172 507.164 97.1328 507.539 98.3984C507.93 99.6484 508.125 101.195 508.125 103.039V119H500.18V103.016C500.18 102 500.039 101.227 499.758 100.695C499.477 100.148 499.07 99.7734 498.539 99.5703C498.008 99.3672 497.359 99.2656 496.594 99.2656C495.781 99.2656 495.094 99.4219 494.531 99.7344C493.969 100.047 493.516 100.484 493.172 101.047C492.844 101.594 492.602 102.242 492.445 102.992C492.305 103.742 492.234 104.562 492.234 105.453Z" fill="black"/>
<path d="M1134 0H1348C1356.28 0 1363 6.71573 1363 15V148C1363 156.284 1356.28 163 1348 163H1134V0Z" fill="#560D65"/>
<path d="M1234.26 103.786H1262.74V109.357H1234.26V103.786ZM1239.96 114.929H1257.04V120.5H1239.96V114.929ZM1248.5 42.5C1240.95 42.5 1233.71 45.4349 1228.37 50.6592C1223.03 55.8834 1220.03 62.969 1220.03 70.3571C1219.84 74.4057 1220.63 78.4412 1222.34 82.1315C1224.05 85.8219 1226.64 89.0616 1229.88 91.5843C1232.73 94.175 1234.26 95.6514 1234.26 98.2143H1239.96C1239.96 93.0886 1236.8 90.2193 1233.72 87.4614C1231.06 85.4676 1228.94 82.8658 1227.55 79.8838C1226.15 76.9019 1225.53 73.6308 1225.72 70.3571C1225.72 64.4466 1228.12 58.7781 1232.39 54.5988C1236.67 50.4194 1242.46 48.0714 1248.5 48.0714C1254.54 48.0714 1260.33 50.4194 1264.61 54.5988C1268.88 58.7781 1271.28 64.4466 1271.28 70.3571C1271.47 73.6333 1270.84 76.9059 1269.44 79.888C1268.04 82.8701 1265.92 85.4706 1263.25 87.4614C1260.2 90.2471 1257.04 93.0329 1257.04 98.2143H1262.74C1262.74 95.6514 1264.25 94.175 1267.12 91.5564C1270.36 89.0381 1272.94 85.8031 1274.66 82.1176C1276.37 78.4321 1277.16 74.4014 1276.97 70.3571C1276.97 66.6989 1276.24 63.0765 1274.81 59.6967C1273.37 56.3169 1271.28 53.2459 1268.63 50.6592C1265.99 48.0724 1262.85 46.0205 1259.4 44.6205C1255.94 43.2205 1252.24 42.5 1248.5 42.5Z" fill="white"/>
</svg>
